<svg xmlns="http://www.w3.org/2000/svg" width="180" height="240" viewBox="0 0 180 240">
  <g fill="none" stroke="#b8382c" stroke-width="10" stroke-linecap="round" stroke-linejoin="round">
    <path d="M90 18c18 26 44 40 44 66 0 18-13 31-28 31-7 0-12-2-16-5-4 3-9 5-16 5-15 0-28-13-28-31 0-26 26-40 44-66Z"/>
    <path d="M58 118c10 14 20 21 32 24-12 3-22 10-32 24-10-14-20-21-32-24 12-3 22-10 32-24Z"/>
    <path d="M122 118c10 14 20 21 32 24-12 3-22 10-32 24-10-14-20-21-32-24 12-3 22-10 32-24Z"/>
    <path d="M90 118c18 25 18 43 0 68-18-25-18-43 0-68Z"/>
    <path d="M90 186v22"/>
    <path d="M90 208l-14 10"/>
    <path d="M90 208l14 10"/>
  </g>
</svg>
